ffmpeg started on 2025-06-28 at 18:03:19
Report written to "D:\Convert\FFMetrics\reports\ssim_report-6.txt"
Log level: 32
Command line:
ffmpeg -hide_banner -nostdin -i "G:\\\xc0\xed\xe8\xec\xe5\\\xce\xed\xe3\xee\xe8\xed\xe3\xe8\\!_37_\xc7\xe8\xec\xe0_2025\\JamClub\\100 \xe4\xe5\xe2\xf3\xf8\xe5\xea, \xea\xee\xf2\xee\xf0\xfb\xe5 \xee\xf7\xe5\xed\xfc-\xee\xf7\xe5\xed\xfc-\xee\xf7\xe5\xed\xfc-\xee\xf7\xe5\xed\xfc-\xee\xf7\xe5\xed\xfc \xf1\xe8\xeb\xfc\xed\xee \xf2\xe5\xe1\xff \xeb\xfe\xe1\xff\xf2\\\xd2\xc2-2\\JamClub_The_100_Girlfriends_Who_Really_Really_Really_Really_REALLY_2_06_HEVC.mkv" -i "G:\\\xc0\xed\xe8\xec\xe5\\\xce\xed\xe3\xee\xe8\xed\xe3\xe8\\!_37_\xc7\xe8\xec\xe0_2025\\JamClub\\100 \xe4\xe5\xe2\xf3\xf8\xe5\xea, \xea\xee\xf2\xee\xf0\xfb\xe5 \xee\xf7\xe5\xed\xfc-\xee\xf7\xe5\xed\xfc-\xee\xf7\xe5\xed\xfc-\xee\xf7\xe5\xed\xfc-\xee\xf7\xe5\xed\xfc \xf1\xe8\xeb\xfc\xed\xee \xf2\xe5\xe1\xff \xeb\xfe\xe1\xff\xf2\\\xd2\xc2-2\\JamClub_The_100_Girlfriends_Who_Really_Really_Really_Really_REALLY_2_06.mp4" -lavfi "[0:v]settb=AVTB,setpts=PTS-STARTPTS,format=pix_fmts=yuv420p10,fps=24000/1001,scale=1920:1080:flags=bicubic[main];[1:v]settb=AVTB,setpts=PTS-STARTPTS,format=pix_fmts=yuv420p,fps=24000/1001,scale=1920:1080:flags=bicubic[ref];[main][ref]ssim=eof_action=endall:stats_file='D\\:/Convert/FFMetrics/logs/ssim_logfile-6.txt'" -f null -
Input #0, matroska,webm, from 'G:\Аниме\Онгоинги\!_37_Зима_2025\JamClub\100 девушек, которые очень-очень-очень-очень-очень сильно тебя любят\ТВ-2\JamClub_The_100_Girlfriends_Who_Really_Really_Really_Really_REALLY_2_06_HEVC.mkv':
  Metadata:
    COMPATIBLE_BRANDS: isomiso2avc1mp41
    MAJOR_BRAND     : isom
    MINOR_VERSION   : 512
    ENCODER         : Lavf61.7.100
  Duration: 00:24:12.31, start: -0.001000, bitrate: 2000 kb/s
  Stream #0:0: Video: hevc (Main 10), yuv420p10le(tv, bt709, progressive), 1920x1080 [SAR 1:1 DAR 16:9], 23.98 fps, 23.98 tbr, 1k tbn (default)
      Metadata:
        HANDLER_NAME    : VideoHandler
        VENDOR_ID       : [0][0][0][0]
        ENCODER         : Lavc61.19.100 libx265
        BPS             : 1803475
        DURATION        : 00:24:12.242708333
        NUMBER_OF_FRAMES: 34819
        NUMBER_OF_BYTES : 327385384
        _STATISTICS_WRITING_APP: mkvpropedit v66.0.0 ('Josie') 64-bit
        _STATISTICS_WRITING_DATE_UTC: 2025-06-28 13:23:09
        _STATISTICS_TAGS: BPS DURATION NUMBER_OF_FRAMES NUMBER_OF_BYTES
  Stream #0:1(eng): Audio: aac (LC), 48000 Hz, stereo, fltp (default)
      Metadata:
        HANDLER_NAME    : SoundHandler
        VENDOR_ID       : [0][0][0][0]
        ENCODER         : Lavc61.19.100 aac
        BPS             : 193124
        DURATION        : 00:24:12.269000000
        NUMBER_OF_FRAMES: 68076
        NUMBER_OF_BYTES : 35058657
        _STATISTICS_WRITING_APP: mkvpropedit v66.0.0 ('Josie') 64-bit
        _STATISTICS_WRITING_DATE_UTC: 2025-06-28 13:23:09
        _STATISTICS_TAGS: BPS DURATION NUMBER_OF_FRAMES NUMBER_OF_BYTES
Input #1, mov,mp4,m4a,3gp,3g2,mj2, from 'G:\Аниме\Онгоинги\!_37_Зима_2025\JamClub\100 девушек, которые очень-очень-очень-очень-очень сильно тебя любят\ТВ-2\JamClub_The_100_Girlfriends_Who_Really_Really_Really_Really_REALLY_2_06.mp4':
  Metadata:
    major_brand     : isom
    minor_version   : 512
    compatible_brands: isomiso2avc1mp41
    encoder         : Lavf60.16.100
  Duration: 00:24:12.29, start: 0.000000, bitrate: 5233 kb/s
  Stream #1:0[0x1](und): Video: h264 (High) (avc1 / 0x31637661), yuv420p(progressive), 1920x1080 [SAR 1:1 DAR 16:9], 5035 kb/s, 23.98 fps, 23.98 tbr, 90k tbn (default)
      Metadata:
        handler_name    : VideoHandler
        vendor_id       : [0][0][0][0]
  Stream #1:1[0x2](eng): Audio: aac (LC) (mp4a / 0x6134706D), 48000 Hz, stereo, fltp, 191 kb/s (default)
      Metadata:
        handler_name    : SoundHandler
        vendor_id       : [0][0][0][0]
Stream mapping:
  Stream #0:0 (hevc) -> settb:default
  Stream #1:0 (h264) -> settb:default
  ssim:default -> Stream #0:0 (wrapped_avframe)
  Stream #0:1 -> #0:1 (aac (native) -> pcm_s16le (native))
Output #0, null, to 'pipe:':
  Metadata:
    COMPATIBLE_BRANDS: isomiso2avc1mp41
    MAJOR_BRAND     : isom
    MINOR_VERSION   : 512
    encoder         : Lavf61.7.100
  Stream #0:0: Video: wrapped_avframe, yuv420p10le(tv, bt709, progressive), 1920x1080 [SAR 1:1 DAR 16:9], q=2-31, 200 kb/s, 23.98 fps, 23.98 tbn
      Metadata:
        encoder         : Lavc61.19.100 wrapped_avframe
  Stream #0:1(eng): Audio: pcm_s16le, 48000 Hz, stereo, s16, 1536 kb/s (default)
      Metadata:
        HANDLER_NAME    : SoundHandler
        VENDOR_ID       : [0][0][0][0]
        _STATISTICS_TAGS: BPS DURATION NUMBER_OF_FRAMES NUMBER_OF_BYTES
        BPS             : 193124
        DURATION        : 00:24:12.269000000
        NUMBER_OF_FRAMES: 68076
        NUMBER_OF_BYTES : 35058657
        _STATISTICS_WRITING_APP: mkvpropedit v66.0.0 ('Josie') 64-bit
        _STATISTICS_WRITING_DATE_UTC: 2025-06-28 13:23:09
        encoder         : Lavc61.19.100 pcm_s16le
frame=  114 fps=0.0 q=-0.0 size=N/A time=00:00:04.75 bitrate=N/A speed=9.29x    frame=  270 fps=265 q=-0.0 size=N/A time=00:00:11.26 bitrate=N/A speed=  11x    frame=  462 fps=301 q=-0.0 size=N/A time=00:00:19.26 bitrate=N/A speed=12.6x    frame=  645 fps=313 q=-0.0 size=N/A time=00:00:26.90 bitrate=N/A speed=13.1x    frame=  898 fps=349 q=-0.0 size=N/A time=00:00:37.45 bitrate=N/A speed=14.6x    frame= 1141 fps=370 q=-0.0 size=N/A time=00:00:47.58 bitrate=N/A speed=15.4x    frame= 1404 fps=389 q=-0.0 size=N/A time=00:00:58.55 bitrate=N/A speed=16.2x    frame= 1668 fps=405 q=-0.0 size=N/A time=00:01:09.56 bitrate=N/A speed=16.9x    frame= 1926 fps=416 q=-0.0 size=N/A time=00:01:20.33 bitrate=N/A speed=17.4x    frame= 2155 fps=418 q=-0.0 size=N/A time=00:01:29.88 bitrate=N/A speed=17.4x    frame= 2409 fps=425 q=-0.0 size=N/A time=00:01:40.47 bitrate=N/A speed=17.7x    frame= 2670 fps=432 q=-0.0 size=N/A time=00:01:51.36 bitrate=N/A speed=  18x    frame= 2917 fps=435 q=-0.0 size=N/A time=00:02:01.66 bitrate=N/A speed=18.2x    frame= 3125 fps=433 q=-0.0 size=N/A time=00:02:10.33 bitrate=N/A speed=18.1x    frame= 3334 fps=432 q=-0.0 size=N/A time=00:02:19.05 bitrate=N/A speed=  18x    frame= 3536 fps=429 q=-0.0 size=N/A time=00:02:27.48 bitrate=N/A speed=17.9x    frame= 3757 fps=429 q=-0.0 size=N/A time=00:02:36.69 bitrate=N/A speed=17.9x    frame= 3970 fps=428 q=-0.0 size=N/A time=00:02:45.58 bitrate=N/A speed=17.8x    frame= 4197 fps=428 q=-0.0 size=N/A time=00:02:55.04 bitrate=N/A speed=17.8x    frame= 4351 fps=422 q=-0.0 size=N/A time=00:03:01.47 bitrate=N/A speed=17.6x    frame= 4530 fps=418 q=-0.0 size=N/A time=00:03:08.93 bitrate=N/A speed=17.4x    frame= 4692 fps=413 q=-0.0 size=N/A time=00:03:15.69 bitrate=N/A speed=17.2x    frame= 4892 fps=412 q=-0.0 size=N/A time=00:03:24.03 bitrate=N/A speed=17.2x    frame= 5146 fps=416 q=-0.0 size=N/A time=00:03:34.63 bitrate=N/A speed=17.3x    frame= 5398 fps=418 q=-0.0 size=N/A time=00:03:45.14 bitrate=N/A speed=17.4x    frame= 5630 fps=420 q=-0.0 size=N/A time=00:03:54.81 bitrate=N/A speed=17.5x    frame= 5874 fps=422 q=-0.0 size=N/A time=00:04:04.99 bitrate=N/A speed=17.6x    frame= 6075 fps=420 q=-0.0 size=N/A time=00:04:13.37 bitrate=N/A speed=17.5x    frame= 6300 fps=421 q=-0.0 size=N/A time=00:04:22.76 bitrate=N/A speed=17.6x    frame= 6542 fps=423 q=-0.0 size=N/A time=00:04:32.85 bitrate=N/A speed=17.6x    frame= 6799 fps=425 q=-0.0 size=N/A time=00:04:43.57 bitrate=N/A speed=17.7x    frame= 7027 fps=426 q=-0.0 size=N/A time=00:04:53.08 bitrate=N/A speed=17.8x    frame= 7260 fps=427 q=-0.0 size=N/A time=00:05:02.80 bitrate=N/A speed=17.8x    frame= 7473 fps=426 q=-0.0 size=N/A time=00:05:11.68 bitrate=N/A speed=17.8x    frame= 7735 fps=428 q=-0.0 size=N/A time=00:05:22.61 bitrate=N/A speed=17.9x    frame= 7981 fps=430 q=-0.0 size=N/A time=00:05:32.87 bitrate=N/A speed=17.9x    frame= 8239 fps=432 q=-0.0 size=N/A time=00:05:43.63 bitrate=N/A speed=  18x    frame= 8411 fps=429 q=-0.0 size=N/A time=00:05:50.80 bitrate=N/A speed=17.9x    frame= 8622 fps=429 q=-0.0 size=N/A time=00:05:59.60 bitrate=N/A speed=17.9x    frame= 8857 fps=429 q=-0.0 size=N/A time=00:06:09.41 bitrate=N/A speed=17.9x    frame= 9100 fps=430 q=-0.0 size=N/A time=00:06:19.54 bitrate=N/A speed=17.9x    frame= 9313 fps=429 q=-0.0 size=N/A time=00:06:28.42 bitrate=N/A speed=17.9x    frame= 9505 fps=428 q=-0.0 size=N/A time=00:06:36.43 bitrate=N/A speed=17.9x    frame= 9766 fps=430 q=-0.0 size=N/A time=00:06:47.32 bitrate=N/A speed=17.9x    frame=10005 fps=431 q=-0.0 size=N/A time=00:06:57.29 bitrate=N/A speed=  18x    frame=10231 fps=431 q=-0.0 size=N/A time=00:07:06.71 bitrate=N/A speed=  18x    frame=10427 fps=430 q=-0.0 size=N/A time=00:07:14.89 bitrate=N/A speed=17.9x    frame=10650 fps=430 q=-0.0 size=N/A time=00:07:24.19 bitrate=N/A speed=17.9x    frame=10881 fps=430 q=-0.0 size=N/A time=00:07:33.82 bitrate=N/A speed=17.9x    frame=11142 fps=432 q=-0.0 size=N/A time=00:07:44.71 bitrate=N/A speed=  18x    frame=11366 fps=432 q=-0.0 size=N/A time=00:07:54.05 bitrate=N/A speed=  18x    frame=11569 fps=431 q=-0.0 size=N/A time=00:08:02.52 bitrate=N/A speed=  18x    frame=11769 fps=430 q=-0.0 size=N/A time=00:08:10.86 bitrate=N/A speed=17.9x    frame=12018 fps=431 q=-0.0 size=N/A time=00:08:21.25 bitrate=N/A speed=  18x    frame=12287 fps=433 q=-0.0 size=N/A time=00:08:32.47 bitrate=N/A speed=18.1x    frame=12534 fps=434 q=-0.0 size=N/A time=00:08:42.77 bitrate=N/A speed=18.1x    frame=12769 fps=434 q=-0.0 size=N/A time=00:08:52.57 bitrate=N/A speed=18.1x    frame=12983 fps=434 q=-0.0 size=N/A time=00:09:01.49 bitrate=N/A speed=18.1x    frame=13222 fps=434 q=-0.0 size=N/A time=00:09:11.46 bitrate=N/A speed=18.1x    frame=13464 fps=435 q=-0.0 size=N/A time=00:09:21.56 bitrate=N/A speed=18.1x    frame=13708 fps=435 q=-0.0 size=N/A time=00:09:31.73 bitrate=N/A speed=18.2x    frame=13939 fps=436 q=-0.0 size=N/A time=00:09:41.37 bitrate=N/A speed=18.2x    frame=14111 fps=434 q=-0.0 size=N/A time=00:09:48.54 bitrate=N/A speed=18.1x    frame=14328 fps=434 q=-0.0 size=N/A time=00:09:57.59 bitrate=N/A speed=18.1x    frame=14557 fps=434 q=-0.0 size=N/A time=00:10:07.14 bitrate=N/A speed=18.1x    frame=14815 fps=435 q=-0.0 size=N/A time=00:10:17.90 bitrate=N/A speed=18.1x    frame=15043 fps=435 q=-0.0 size=N/A time=00:10:27.41 bitrate=N/A speed=18.1x    frame=15295 fps=436 q=-0.0 size=N/A time=00:10:37.92 bitrate=N/A speed=18.2x    frame=15564 fps=437 q=-0.0 size=N/A time=00:10:49.14 bitrate=N/A speed=18.2x    frame=15811 fps=438 q=-0.0 size=N/A time=00:10:59.45 bitrate=N/A speed=18.3x    frame=16051 fps=438 q=-0.0 size=N/A time=00:11:09.46 bitrate=N/A speed=18.3x    frame=16280 fps=438 q=-0.0 size=N/A time=00:11:19.01 bitrate=N/A speed=18.3x    frame=16553 fps=439 q=-0.0 size=N/A time=00:11:30.39 bitrate=N/A speed=18.3x    frame=16770 fps=439 q=-0.0 size=N/A time=00:11:39.44 bitrate=N/A speed=18.3x    frame=16968 fps=438 q=-0.0 size=N/A time=00:11:47.70 bitrate=N/A speed=18.3x    frame=17165 fps=438 q=-0.0 size=N/A time=00:11:55.92 bitrate=N/A speed=18.3x    frame=17328 fps=436 q=-0.0 size=N/A time=00:12:02.72 bitrate=N/A speed=18.2x    frame=17534 fps=436 q=-0.0 size=N/A time=00:12:11.31 bitrate=N/A speed=18.2x    frame=17739 fps=435 q=-0.0 size=N/A time=00:12:19.86 bitrate=N/A speed=18.1x    frame=17944 fps=435 q=-0.0 size=N/A time=00:12:28.41 bitrate=N/A speed=18.1x    frame=18190 fps=435 q=-0.0 size=N/A time=00:12:38.67 bitrate=N/A speed=18.1x    frame=18387 fps=435 q=-0.0 size=N/A time=00:12:46.89 bitrate=N/A speed=18.1x    frame=18640 fps=435 q=-0.0 size=N/A time=00:12:57.44 bitrate=N/A speed=18.1x    frame=18815 fps=434 q=-0.0 size=N/A time=00:13:04.74 bitrate=N/A speed=18.1x    frame=19016 fps=433 q=-0.0 size=N/A time=00:13:13.12 bitrate=N/A speed=18.1x    frame=19274 fps=434 q=-0.0 size=N/A time=00:13:23.88 bitrate=N/A speed=18.1x    frame=19499 fps=434 q=-0.0 size=N/A time=00:13:33.27 bitrate=N/A speed=18.1x    frame=19740 fps=435 q=-0.0 size=N/A time=00:13:43.32 bitrate=N/A speed=18.1x    frame=19954 fps=434 q=-0.0 size=N/A time=00:13:52.24 bitrate=N/A speed=18.1x    frame=20174 fps=434 q=-0.0 size=N/A time=00:14:01.42 bitrate=N/A speed=18.1x    frame=20443 fps=435 q=-0.0 size=N/A time=00:14:12.64 bitrate=N/A speed=18.2x    frame=20685 fps=436 q=-0.0 size=N/A time=00:14:22.73 bitrate=N/A speed=18.2x    frame=20879 fps=435 q=-0.0 size=N/A time=00:14:30.82 bitrate=N/A speed=18.1x    frame=21137 fps=436 q=-0.0 size=N/A time=00:14:41.58 bitrate=N/A speed=18.2x    frame=21356 fps=436 q=-0.0 size=N/A time=00:14:50.72 bitrate=N/A speed=18.2x    frame=21573 fps=435 q=-0.0 size=N/A time=00:14:59.77 bitrate=N/A speed=18.2x    frame=21800 fps=436 q=-0.0 size=N/A time=00:15:09.24 bitrate=N/A speed=18.2x    frame=22055 fps=436 q=-0.0 size=N/A time=00:15:19.87 bitrate=N/A speed=18.2x    frame=22239 fps=435 q=-0.0 size=N/A time=00:15:27.55 bitrate=N/A speed=18.2x    frame=22473 fps=435 q=-0.0 size=N/A time=00:15:37.31 bitrate=N/A speed=18.2x    frame=22706 fps=436 q=-0.0 size=N/A time=00:15:47.02 bitrate=N/A speed=18.2x    frame=22915 fps=435 q=-0.0 size=N/A time=00:15:55.74 bitrate=N/A speed=18.2x    frame=23085 fps=434 q=-0.0 size=N/A time=00:16:02.83 bitrate=N/A speed=18.1x    frame=23215 fps=433 q=-0.0 size=N/A time=00:16:08.25 bitrate=N/A speed=  18x    frame=23420 fps=432 q=-0.0 size=N/A time=00:16:16.80 bitrate=N/A speed=  18x    frame=23600 fps=431 q=-0.0 size=N/A time=00:16:24.31 bitrate=N/A speed=  18x    frame=23807 fps=431 q=-0.0 size=N/A time=00:16:32.95 bitrate=N/A speed=  18x    frame=24046 fps=432 q=-0.0 size=N/A time=00:16:42.91 bitrate=N/A speed=  18x    frame=24267 fps=431 q=-0.0 size=N/A time=00:16:52.13 bitrate=N/A speed=  18x    frame=24469 fps=431 q=-0.0 size=N/A time=00:17:00.56 bitrate=N/A speed=  18x    frame=24721 fps=432 q=-0.0 size=N/A time=00:17:11.07 bitrate=N/A speed=  18x    frame=24979 fps=432 q=-0.0 size=N/A time=00:17:21.83 bitrate=N/A speed=  18x    frame=25241 fps=433 q=-0.0 size=N/A time=00:17:32.76 bitrate=N/A speed=18.1x    frame=25504 fps=434 q=-0.0 size=N/A time=00:17:43.72 bitrate=N/A speed=18.1x    frame=25752 fps=434 q=-0.0 size=N/A time=00:17:54.07 bitrate=N/A speed=18.1x    frame=25984 fps=434 q=-0.0 size=N/A time=00:18:03.74 bitrate=N/A speed=18.1x    frame=26204 fps=434 q=-0.0 size=N/A time=00:18:12.92 bitrate=N/A speed=18.1x    frame=26440 fps=434 q=-0.0 size=N/A time=00:18:22.76 bitrate=N/A speed=18.1x    frame=26668 fps=434 q=-0.0 size=N/A time=00:18:32.27 bitrate=N/A speed=18.1x    frame=26850 fps=434 q=-0.0 size=N/A time=00:18:39.86 bitrate=N/A speed=18.1x    frame=27040 fps=433 q=-0.0 size=N/A time=00:18:47.79 bitrate=N/A speed=18.1x    frame=27271 fps=433 q=-0.0 size=N/A time=00:18:57.42 bitrate=N/A speed=18.1x    frame=27502 fps=433 q=-0.0 size=N/A time=00:19:07.06 bitrate=N/A speed=18.1x    frame=27751 fps=434 q=-0.0 size=N/A time=00:19:17.44 bitrate=N/A speed=18.1x    frame=27971 fps=434 q=-0.0 size=N/A time=00:19:26.62 bitrate=N/A speed=18.1x    frame=28202 fps=434 q=-0.0 size=N/A time=00:19:36.25 bitrate=N/A speed=18.1x    frame=28436 fps=434 q=-0.0 size=N/A time=00:19:46.01 bitrate=N/A speed=18.1x    frame=28601 fps=433 q=-0.0 size=N/A time=00:19:52.90 bitrate=N/A speed=18.1x    frame=28800 fps=433 q=-0.0 size=N/A time=00:20:01.20 bitrate=N/A speed=  18x    frame=28969 fps=432 q=-0.0 size=N/A time=00:20:08.24 bitrate=N/A speed=  18x    frame=29174 fps=432 q=-0.0 size=N/A time=00:20:16.79 bitrate=N/A speed=  18x    frame=29370 fps=431 q=-0.0 size=N/A time=00:20:24.97 bitrate=N/A speed=  18x    frame=29541 fps=431 q=-0.0 size=N/A time=00:20:32.10 bitrate=N/A speed=  18x    frame=29762 fps=431 q=-0.0 size=N/A time=00:20:41.32 bitrate=N/A speed=  18x    frame=29954 fps=430 q=-0.0 size=N/A time=00:20:49.33 bitrate=N/A speed=17.9x    frame=30139 fps=430 q=-0.0 size=N/A time=00:20:57.04 bitrate=N/A speed=17.9x    frame=30350 fps=429 q=-0.0 size=N/A time=00:21:05.84 bitrate=N/A speed=17.9x    frame=30606 fps=430 q=-0.0 size=N/A time=00:21:16.52 bitrate=N/A speed=17.9x    frame=30830 fps=430 q=-0.0 size=N/A time=00:21:25.86 bitrate=N/A speed=17.9x    frame=31050 fps=430 q=-0.0 size=N/A time=00:21:35.04 bitrate=N/A speed=17.9x    frame=31302 fps=430 q=-0.0 size=N/A time=00:21:45.55 bitrate=N/A speed=17.9x    frame=31542 fps=431 q=-0.0 size=N/A time=00:21:55.56 bitrate=N/A speed=  18x    frame=31795 fps=431 q=-0.0 size=N/A time=00:22:06.11 bitrate=N/A speed=  18x    frame=31983 fps=431 q=-0.0 size=N/A time=00:22:13.95 bitrate=N/A speed=  18x    frame=32179 fps=430 q=-0.0 size=N/A time=00:22:22.13 bitrate=N/A speed=17.9x    frame=32421 fps=430 q=-0.0 size=N/A time=00:22:32.22 bitrate=N/A speed=  18x    frame=32628 fps=430 q=-0.0 size=N/A time=00:22:40.85 bitrate=N/A speed=17.9x    frame=32829 fps=430 q=-0.0 size=N/A time=00:22:49.24 bitrate=N/A speed=17.9x    frame=33027 fps=430 q=-0.0 size=N/A time=00:22:57.50 bitrate=N/A speed=17.9x    frame=33197 fps=429 q=-0.0 size=N/A time=00:23:04.59 bitrate=N/A speed=17.9x    frame=33306 fps=428 q=-0.0 size=N/A time=00:23:09.13 bitrate=N/A speed=17.8x    frame=33414 fps=426 q=-0.0 size=N/A time=00:23:13.64 bitrate=N/A speed=17.8x    frame=33533 fps=425 q=-0.0 size=N/A time=00:23:18.60 bitrate=N/A speed=17.7x    frame=33662 fps=424 q=-0.0 size=N/A time=00:23:23.98 bitrate=N/A speed=17.7x    frame=33856 fps=423 q=-0.0 size=N/A time=00:23:32.07 bitrate=N/A speed=17.7x    frame=34079 fps=423 q=-0.0 size=N/A time=00:23:41.37 bitrate=N/A speed=17.7x    frame=34285 fps=423 q=-0.0 size=N/A time=00:23:49.97 bitrate=N/A speed=17.7x    frame=34482 fps=423 q=-0.0 size=N/A time=00:23:58.18 bitrate=N/A speed=17.6x    frame=34666 fps=423 q=-0.0 size=N/A time=00:24:05.86 bitrate=N/A speed=17.6x    [Parsed_ssim_10 @ 000002895bdcc200] SSIM Y:0.994385 (22.506583) U:0.993020 (21.561248) V:0.992733 (21.386734) All:0.993882 (22.134092)
[out#0/null @ 0000028955bd9ec0] video:14961KiB audio:272304KiB subtitle:0KiB other streams:0KiB global headers:0KiB muxing overhead: unknown
frame=34819 fps=423 q=-0.0 Lsize=N/A time=00:24:12.24 bitrate=N/A speed=17.6x    
